<svg width="12" height="12" viewBox="0 0 12 12" fill="none" xmlns="http://www.w3.org/2000/svg">
<path d="M5.99995 0C6.2761 0 6.49995 0.223858 6.49995 0.5V4.33333H8.16357C9.17609 4.33333 9.99691 5.15414 9.99691 6.16667V10.2944L11.1466 9.14621C11.342 8.95108 11.6586 8.95129 11.8537 9.14669C12.0489 9.34208 12.0487 9.65866 11.8533 9.85379L9.85022 11.8541C9.65492 12.0492 9.33852 12.0491 9.14335 11.8539L7.14302 9.85355C6.94775 9.65829 6.94775 9.34171 7.14302 9.14645C7.33828 8.95119 7.65486 8.95119 7.85012 9.14645L8.99691 10.2932V6.16667C8.99691 5.70643 8.62381 5.33333 8.16357 5.33333H3.83322C3.37298 5.33333 2.99989 5.70643 2.99989 6.16667V10.2932L4.14667 9.14645C4.34193 8.95119 4.65852 8.95119 4.85378 9.14645C5.04904 9.34171 5.04904 9.65829 4.85378 9.85355L2.85344 11.8539C2.65818 12.0492 2.3416 12.0492 2.14634 11.8539L0.145962 9.85356C-0.0493023 9.6583 -0.0493054 9.34171 0.145955 9.14645C0.341215 8.95119 0.657798 8.95118 0.853062 9.14644L1.99989 10.2932V6.16667C1.99989 5.15414 2.8207 4.33333 3.83322 4.33333H5.49995V0.5C5.49995 0.223858 5.72381 0 5.99995 0Z" fill="white"/>
</svg>
